# xmcd CD database file
#
# Track frame offsets:
#	150
#	19837
#	41010
#	61135
#	81192
#	101553
#	119563
#	140833
#	158500
#	176840
#	195815
#	213200
#	231100
#
# Disc length: 3312 seconds
#
# Revision: 0
# Processed by: cddbd v1.5.2PL0 Copyright (c) Steve Scherf et al.
# Submitted via: CDex 1.51
#
DISCID=aa0cee0d
DTITLE=Matt Bianco - HiFi Bossavova
DYEAR=2009
DGENRE=Jazz
TTITLE0=HiFi Bossanova
TTITLE1=Lost In You (Revisited)
TTITLE2=Natural
TTITLE3=Don't Look Back
TTITLE4=Always On My Mind
TTITLE5=The Way I Like It
TTITLE6=Ba-De-Ah
TTITLE7=Someone Else's Dream
TTITLE8=Anna-Marie
TTITLE9=Angel Divine
TTITLE10=Matt's Chill
TTITLE11=Someone Else's Dream (Alternate version)
TTITLE12=Matt's Chill (Dub version)
EXTD=YEAR: 2009
EXTT0=
EXTT1=
EXTT2=
EXTT3=
EXTT4=
EXTT5=
EXTT6=
EXTT7=
EXTT8=
EXTT9=
EXTT10=
EXTT11=
EXTT12=
PLAYORDER=
